<svg xmlns="http://www.w3.org/2000/svg" viewBox="0 46.9 240 226">
<path fill="#fff" d="M152.1,46.9c-48.5,0-87.9,39.3-87.9,87.7c0,20.3,6.9,38.9,18.5,53.8L0,260l11.2,12.8l83.3-72.2
	c15.4,13.4,35.6,21.5,57.6,21.5c48.5,0,87.9-39.3,87.9-87.7C240,86.2,200.6,46.9,152.1,46.9z M152.1,212.5
	c-43.1,0-78.1-35-78.1-77.9s35.1-77.9,78.1-77.9s78.1,35,78.1,77.9S195.2,212.5,152.1,212.5z"/>
<polygon fill="#fff" points="157.4,100 146.8,100 146.8,129.3 117.4,129.3 117.4,140 146.8,140 146.8,169.3 157.4,169.3 157.4,140 186.8,140 
	186.8,129.3 157.4,129.3 "/>
</svg>
