<svg width="818" height="271" viewBox="0 0 818 271" fill="none" xmlns="http://www.w3.org/2000/svg">
<path d="M75.42 157.52C62.22 157.52 50.34 154.76 39.78 149.24C29.34 143.6 21.12 135.8 15.12 125.84C9.12 115.88 6.12 104.6 6.12 92C6.12 79.4 9.12 68.12 15.12 58.16C21.12 48.2 29.34 40.46 39.78 34.94C50.34 29.3 62.22 26.48 75.42 26.48C86.94 26.48 97.32 28.52 106.56 32.6C115.8 36.68 123.48 42.56 129.6 50.24L106.92 70.76C98.76 60.92 88.86 56 77.22 56C70.38 56 64.26 57.5 58.86 60.5C53.58 63.5 49.44 67.76 46.44 73.28C43.56 78.68 42.12 84.92 42.12 92C42.12 99.08 43.56 105.38 46.44 110.9C49.44 116.3 53.58 120.5 58.86 123.5C64.26 126.5 70.38 128 77.22 128C88.86 128 98.76 123.08 106.92 113.24L129.6 133.76C123.48 141.44 115.8 147.32 106.56 151.4C97.32 155.48 86.94 157.52 75.42 157.52ZM155.391 29H191.031V155H155.391V29ZM253.107 57.26H214.407V29H327.267V57.26H288.747V155H253.107V57.26ZM350.445 29H386.085V155H350.445V29Z" fill="black"/>
<path d="M527.901 126.74V155H415.041V132.68L478.581 57.26H416.661V29H525.201V51.32L461.661 126.74H527.901ZM654.569 127.46V155H553.409V29H652.229V56.54H588.689V77.78H644.669V104.42H588.689V127.46H654.569ZM804.126 29V155H774.786L719.166 87.86V155H684.246V29H713.586L769.206 96.14V29H804.126Z" fill="white"/>
<path d="M40.185 261.33C33.155 261.33 26.8217 259.842 21.185 256.865C15.6117 253.888 11.21 249.772 7.98 244.515C4.81333 239.258 3.23 233.337 3.23 226.75C3.23 220.163 4.81333 214.242 7.98 208.985C11.21 203.728 15.6117 199.612 21.185 196.635C26.8217 193.658 33.155 192.17 40.185 192.17C47.215 192.17 53.5167 193.658 59.09 196.635C64.7267 199.612 69.1283 203.728 72.295 208.985C75.525 214.242 77.14 220.163 77.14 226.75C77.14 233.337 75.525 239.258 72.295 244.515C69.1283 249.772 64.7267 253.888 59.09 256.865C53.5167 259.842 47.215 261.33 40.185 261.33ZM40.185 245.75C43.5417 245.75 46.5817 244.958 49.305 243.375C52.0283 241.792 54.1817 239.575 55.765 236.725C57.3483 233.812 58.14 230.487 58.14 226.75C58.14 223.013 57.3483 219.72 55.765 216.87C54.1817 213.957 52.0283 211.708 49.305 210.125C46.5817 208.542 43.5417 207.75 40.185 207.75C36.8283 207.75 33.7883 208.542 31.065 210.125C28.3417 211.708 26.1883 213.957 24.605 216.87C23.0217 219.72 22.23 223.013 22.23 226.75C22.23 230.487 23.0217 233.812 24.605 236.725C26.1883 239.575 28.3417 241.792 31.065 243.375C33.7883 244.958 36.8283 245.75 40.185 245.75ZM107.417 208.035V222.665H136.772V237.2H107.417V260H88.6068V193.5H140.762V208.035H107.417ZM194.59 208.415H174.165V193.5H233.73V208.415H213.4V260H194.59V208.415ZM305.623 193.5V260H286.813V234.065H261.163V260H242.353V193.5H261.163V218.485H286.813V193.5H305.623ZM373.896 245.465V260H320.506V193.5H372.661V208.035H339.126V219.245H368.671V233.305H339.126V245.465H373.896Z" fill="black"/>
<path d="M519.521 193.5L497.956 260H477.816L465.086 219.53L451.786 260H431.646L410.081 193.5H429.461L442.856 235.965L456.916 193.5H474.206L487.601 236.345L501.566 193.5H519.521ZM560.483 261.33C553.453 261.33 547.12 259.842 541.483 256.865C535.91 253.888 531.508 249.772 528.278 244.515C525.111 239.258 523.528 233.337 523.528 226.75C523.528 220.163 525.111 214.242 528.278 208.985C531.508 203.728 535.91 199.612 541.483 196.635C547.12 193.658 553.453 192.17 560.483 192.17C567.513 192.17 573.815 193.658 579.388 196.635C585.025 199.612 589.426 203.728 592.593 208.985C595.823 214.242 597.438 220.163 597.438 226.75C597.438 233.337 595.823 239.258 592.593 244.515C589.426 249.772 585.025 253.888 579.388 256.865C573.815 259.842 567.513 261.33 560.483 261.33ZM560.483 245.75C563.84 245.75 566.88 244.958 569.603 243.375C572.326 241.792 574.48 239.575 576.063 236.725C577.646 233.812 578.438 230.487 578.438 226.75C578.438 223.013 577.646 219.72 576.063 216.87C574.48 213.957 572.326 211.708 569.603 210.125C566.88 208.542 563.84 207.75 560.483 207.75C557.126 207.75 554.086 208.542 551.363 210.125C548.64 211.708 546.486 213.957 544.903 216.87C543.32 219.72 542.528 223.013 542.528 226.75C542.528 230.487 543.32 233.812 544.903 236.725C546.486 239.575 548.64 241.792 551.363 243.375C554.086 244.958 557.126 245.75 560.483 245.75ZM637.975 242.33H627.715V260H608.905V193.5H639.305C645.321 193.5 650.546 194.513 654.98 196.54C659.413 198.503 662.833 201.353 665.24 205.09C667.646 208.763 668.85 213.102 668.85 218.105C668.85 222.918 667.71 227.13 665.43 230.74C663.213 234.287 660.015 237.073 655.835 239.1L670.18 260H650.04L637.975 242.33ZM649.85 218.105C649.85 215.002 648.868 212.595 646.905 210.885C644.941 209.175 642.028 208.32 638.165 208.32H627.715V227.795H638.165C642.028 227.795 644.941 226.972 646.905 225.325C648.868 223.615 649.85 221.208 649.85 218.105ZM680.842 193.5H699.652V245.085H731.382V260H680.842V193.5ZM740.44 193.5H771.885C779.169 193.5 785.629 194.862 791.265 197.585C796.902 200.308 801.272 204.172 804.375 209.175C807.479 214.178 809.03 220.037 809.03 226.75C809.03 233.463 807.479 239.322 804.375 244.325C801.272 249.328 796.902 253.192 791.265 255.915C785.629 258.638 779.169 260 771.885 260H740.44V193.5ZM771.125 244.99C776.825 244.99 781.385 243.375 784.805 240.145C788.289 236.915 790.03 232.45 790.03 226.75C790.03 221.05 788.289 216.585 784.805 213.355C781.385 210.125 776.825 208.51 771.125 208.51H759.25V244.99H771.125Z" fill="white"/>
</svg>
