<svg xmlns="http://www.w3.org/2000/svg" width="107px" height="26px" viewBox="0 0 107 26">
  <path fill-rule="evenodd" d="M103.267,25.351 L95.130,14.670 L95.130,25.351 L91.482,25.351 L91.482,8.549 L94.890,8.549 L102.763,18.894 L102.763,8.549 L106.411,8.549 L106.411,25.351 L103.267,25.351 ZM83.586,8.549 L87.282,8.549 L87.282,25.351 L83.586,25.351 L83.586,8.549 ZM75.715,14.382 L70.987,21.559 L70.891,21.559 L66.211,14.454 L66.211,25.351 L62.586,25.351 L62.586,8.549 L66.571,8.549 L70.987,15.654 L75.403,8.549 L79.388,8.549 L79.388,25.351 L75.715,25.351 L75.715,14.382 ZM50.347,25.639 C45.163,25.639 41.442,21.775 41.442,16.950 C41.442,12.174 45.211,8.261 50.395,8.261 C55.580,8.261 59.300,12.126 59.300,16.950 C59.300,21.727 55.532,25.639 50.347,25.639 ZM50.347,11.670 C47.371,11.670 45.307,14.022 45.307,16.950 C45.307,19.830 47.419,22.231 50.395,22.231 C53.371,22.231 55.436,19.878 55.436,16.950 C55.436,14.070 53.323,11.670 50.347,11.670 ZM35.036,25.351 L31.387,19.974 L28.531,19.974 L28.531,25.351 L24.835,25.351 L24.835,8.549 L32.515,8.549 C34.652,8.549 36.308,9.149 37.412,10.254 C38.348,11.190 38.852,12.510 38.852,14.142 C38.852,16.854 37.388,18.558 35.252,19.350 L39.356,25.351 L35.036,25.351 ZM32.203,11.886 L28.531,11.886 L28.531,16.710 L32.275,16.710 C34.075,16.710 35.108,15.750 35.108,14.286 C35.108,12.702 34.003,11.886 32.203,11.886 ZM8.755,8.549 L21.428,8.549 L21.428,11.838 L12.427,11.838 L12.427,15.246 L20.348,15.246 L20.348,18.534 L12.427,18.534 L12.427,22.063 L21.548,22.063 L21.548,25.351 L8.755,25.351 L8.755,8.549 ZM-0.001,-0.001 L4.999,-0.001 L4.999,4.999 L-0.001,4.999 L-0.001,-0.001 ZM4.555,25.351 L0.859,25.351 L0.859,8.549 L4.555,8.549 L4.555,25.351 Z"/>
</svg>
