<svg xmlns="http://www.w3.org/2000/svg" width="841.28" height="87.35" viewBox="0 0 841.28 87.35">
  <metadata><?xpacket begin="﻿" id="W5M0MpCehiHzreSzNTczkc9d"?>
<x:xmpmeta xmlns:x="adobe:ns:meta/" x:xmptk="Adobe XMP Core 5.6-c142 79.160924, 2017/07/13-01:06:39        ">
   <rdf:RDF xmlns:rdf="http://www.w3.org/1999/02/22-rdf-syntax-ns#">
      <rdf:Description rdf:about=""/>
   </rdf:RDF>
</x:xmpmeta>
                                                                                                    
                                                                                                    
                                                                                                    
                                                                                                    
                                                                                                    
                                                                                                    
                                                                                                    
                                                                                                    
                                                                                                    
                                                                                                    
                                                                                                    
                                                                                                    
                                                                                                    
                                                                                                    
                                                                                                    
                                                                                                    
                                                                                                    
                                                                                                    
                                                                                                    
                                                                                                    
                           
<?xpacket end="w"?></metadata>
<defs>
    <style>
      .cls-1, .cls-2 {
        fill-rule: evenodd;
      }

      .cls-2 {
        fill: #fff;
      }
    </style>
  </defs>
  <path id="e_to_me_" data-name="e to me " class="cls-1" d="M7020.74,2360.98v-19.8h-45.12v-13.32h40.32V2309.5h-40.32v-12.72h44.52v-19.8h-67.56v84h68.16Zm89.4,0v-63.6h25.2v-20.4h-73.68v20.4h25.2v63.6h23.28Zm119.64-42a41.823,41.823,0,0,0-12.9-31.02q-12.9-12.66-32.22-12.66t-32.34,12.72a43.532,43.532,0,0,0-.12,61.98q12.885,12.66,32.22,12.66,19.32,0,32.34-12.72a41.651,41.651,0,0,0,13.02-30.96h0ZM7169.24,2335a24.467,24.467,0,0,1-.12-32.1,19.645,19.645,0,0,1,15.3-6.6,20.116,20.116,0,0,1,15.48,6.66,22.844,22.844,0,0,1,6.12,16.02,23.177,23.177,0,0,1-5.94,16.08A21.247,21.247,0,0,1,7169.24,2335Zm129.17,25.98v-48l21.36,32.64h0.48l21.48-32.88v48.24h23.16v-84h-24.6l-20.04,32.52-20.04-32.52h-24.6v84h22.8Zm149.76,0v-19.8h-45.12v-13.32h40.32V2309.5h-40.32v-12.72h44.52v-19.8h-67.56v84h68.16Z" transform="translate(-6606.91 -2275.31)"/>
  <path id="Writ_" data-name="Writ " class="cls-2" d="M6655.27,2361.68l16.8-48.36,16.92,48.36h20.28l28.08-84.6h-24.12l-14.64,48.6-16.2-48.84h-20.04l-16.2,48.84-14.64-48.6h-24.6l28.08,84.6h20.28Zm114.84-.6v-25.44h10.2l16.92,25.44h26.88l-20.04-29.28q17.28-7.32,17.28-25.8,0-12.48-7.44-19.92-9-9-27.36-9h-39.72v84h23.28Zm0-63.84h15.24q6,0,9.3,2.52t3.3,7.44a9.156,9.156,0,0,1-3.3,7.5q-3.3,2.7-9.18,2.7h-15.36v-20.16Zm87.12,63.84v-84h-23.4v84h23.4Zm59.4,0v-63.6h25.2v-20.4h-73.68v20.4h25.2v63.6h23.28Z" transform="translate(-6606.91 -2275.31)"/>
</svg>
